<svg width="50" height="51" viewBox="0 0 50 51" fill="none" xmlns="http://www.w3.org/2000/svg">
<ellipse cx="25" cy="25.3511" rx="25" ry="25.3511" fill="#D9D9D9" fill-opacity="0.2"/>
<path fill-rule="evenodd" clip-rule="evenodd" d="M23.4301 13C24.1538 12.9974 24.794 13.4751 25.0068 14.1765L30.2125 31.3328L35.0585 19.0477C35.2637 18.5275 35.7129 18.1467 36.254 18.034C36.7952 17.9214 37.356 18.092 37.7467 18.4881L42.6774 23.4881C43.3192 24.139 43.3192 25.1943 42.6774 25.8451C42.0356 26.496 40.9949 26.496 40.3531 25.8451L37.1848 22.6324L31.5363 36.9523C31.2774 37.6083 30.639 38.0274 29.9428 37.9986C29.2468 37.9696 28.6442 37.4986 28.4393 36.8234L23.4558 20.3995L20.0794 31.8121C19.9012 32.4146 19.4036 32.8641 18.793 32.9741C18.1823 33.0843 17.5624 32.8364 17.1903 32.3333L13.5744 27.4445L9.95854 32.3333C9.41391 33.0696 8.38371 33.2189 7.65753 32.6666C6.93135 32.1143 6.78418 31.0696 7.32882 30.3333L12.2596 23.6666C12.5699 23.247 13.0571 23 13.5744 23C14.0917 23 14.5789 23.247 14.8893 23.6666L17.8665 27.692L21.8617 14.1877C22.0696 13.4849 22.7065 13.0026 23.4301 13Z" fill="white"/>
</svg>
