<svg width="50" height="50" viewBox="0 0 50 50" fill="none" xmlns="http://www.w3.org/2000/svg">
<path d="M13.0156 13.8085C13.0115 13.3941 13.1698 12.9951 13.4558 12.6992C13.7419 12.4033 14.1321 12.2348 14.5408 12.2307L20.7039 12.1692C21.1126 12.1652 21.5061 12.3259 21.798 12.616C22.0898 12.9061 22.2561 13.3019 22.2603 13.7163L22.3382 21.5284C22.3423 21.9428 22.184 22.3418 21.8979 22.6377C21.6119 22.9336 21.2216 23.1021 20.813 23.1062L14.6499 23.1677C14.2412 23.1718 13.8477 23.0111 13.5558 22.7209C13.2639 22.4308 13.0976 22.035 13.0935 21.6206L13.0156 13.8085ZM28.4234 13.6548C28.4193 13.2404 28.5776 12.8414 28.8637 12.5455C29.1497 12.2496 29.54 12.0811 29.9486 12.077L36.1117 12.0156C36.5204 12.0115 36.9139 12.1722 37.2058 12.4623C37.4977 12.7524 37.664 13.1482 37.6681 13.5626L37.6993 16.6875C37.7034 17.1018 37.545 17.5009 37.259 17.7968C36.973 18.0927 36.5827 18.2612 36.1741 18.2652L30.0109 18.3267C29.6023 18.3308 29.2088 18.1701 28.9169 17.88C28.625 17.5898 28.4587 17.1941 28.4546 16.7797L28.4234 13.6548ZM13.187 30.9952C13.1829 30.5808 13.3413 30.1818 13.6273 29.8859C13.9133 29.59 14.3036 29.4214 14.7122 29.4174L20.8753 29.3559C21.284 29.3518 21.6775 29.5125 21.9694 29.8026C22.2613 30.0928 22.4276 30.4886 22.4317 30.9029L22.4785 35.5902C22.4826 36.0046 22.3242 36.4036 22.0382 36.6995C21.7522 36.9954 21.3619 37.1639 20.9533 37.168L14.7901 37.2295C14.3815 37.2336 13.988 37.0729 13.6961 36.7827C13.4042 36.4926 13.2379 36.0968 13.2338 35.6824L13.187 30.9952ZM28.5481 26.1542C28.544 25.7398 28.7023 25.3408 28.9883 25.0449C29.2744 24.749 29.6646 24.5805 30.0733 24.5764L36.2364 24.5149C36.6451 24.5109 37.0386 24.6716 37.3305 24.9617C37.6223 25.2518 37.7886 25.6476 37.7928 26.062L37.8863 35.4365C37.8904 35.8509 37.7321 36.2499 37.446 36.5458C37.16 36.8417 36.7697 37.0102 36.3611 37.0143L30.198 37.0758C29.7893 37.0799 29.3958 36.9192 29.1039 36.629C28.812 36.3389 28.6457 35.9431 28.6416 35.5287L28.5481 26.1542Z" stroke="white" stroke-width="2"/>
</svg>
