<svg width="50" height="50" viewBox="0 0 50 50" fill="none" xmlns="http://www.w3.org/2000/svg">
<path d="M25.719 17.3892C25.6871 16.7928 25.0776 16.8942 24.4829 16.8942C24.9222 17.0112 25.3378 17.174 25.719 17.3892Z" fill="white"/>
<path d="M19.3617 15.8945C17.053 15.8945 15.9903 18.8167 17.8359 20.2864C18.4651 18.6065 19.7175 17.4002 21.3595 16.9241C20.9103 16.3032 20.1846 15.8945 19.3617 15.8945Z" fill="white"/>
<path d="M14.592 19.8291C14.6861 20.131 14.808 20.4207 14.9528 20.6951L14.1945 21.4539C13.9908 21.6575 13.9908 21.9881 14.1945 22.1922L15.5312 23.5293C15.6286 23.6267 15.762 23.6815 15.901 23.6815C16.0385 23.6815 16.171 23.6267 16.27 23.5293L17.0275 22.7705C17.1412 22.8307 17.2672 22.8676 17.385 22.9195C17.385 22.9108 17.3841 22.9019 17.3841 22.8932C17.3841 22.2731 17.4553 21.6882 17.5821 21.1389C16.6675 20.5503 16.0572 19.5285 16.0572 18.3619C16.0572 16.5396 17.5396 15.0568 19.3615 15.0568C20.5951 15.0568 21.6602 15.7436 22.2288 16.747C22.8358 16.6717 23.4061 16.6717 24.0924 16.8014C24.0041 16.5343 23.9002 16.2729 23.7701 16.0279L24.5285 15.2687C24.6274 15.171 24.6822 15.038 24.6822 14.8998C24.6822 14.7615 24.6274 14.6286 24.5285 14.5308L23.1925 13.1945C23.0903 13.0922 22.9569 13.0415 22.8236 13.0415C22.6902 13.0415 22.5569 13.0922 22.4554 13.1945L21.6946 13.9536C21.4198 13.808 21.131 13.6861 20.8283 13.5941V12.5215C20.8283 12.2336 20.596 12 20.3072 12H18.4166C18.1294 12 17.8946 12.2336 17.8946 12.5215V13.594C17.5927 13.6861 17.3039 13.808 17.0282 13.9536L16.27 13.1953C16.1677 13.093 16.0344 13.0423 15.901 13.0423C15.7676 13.0423 15.6335 13.093 15.5321 13.1948L14.1945 14.5312C14.0971 14.6294 14.0423 14.7618 14.0423 14.9006C14.0423 15.0392 14.0971 15.1717 14.1945 15.2695L14.9528 16.0283C14.808 16.3032 14.6861 16.5924 14.5937 16.8942H13.522C13.2332 16.8942 13 17.1282 13 17.4165V19.3072C13 19.5947 13.2332 19.8291 13.522 19.8291H14.592Z" fill="white"/>
<path d="M30.9694 29.9455C31.8055 29.4869 32.3798 28.6092 32.3798 27.5905C32.3798 26.1041 31.1699 24.895 29.6834 24.895C29.1606 24.895 28.6763 25.0513 28.2623 25.3098C28.0145 26.2964 27.6242 27.2401 27.1138 28.0598C28.5609 28.3318 29.8887 28.9908 30.9694 29.9455Z" fill="white"/>
<path d="M36.5488 26.5707C36.5488 26.2594 36.296 26.0073 35.9859 26.0073H34.8292C34.7293 25.6813 34.5968 25.3688 34.4397 25.0723L35.2586 24.2534C35.365 24.1479 35.4239 24.0047 35.4239 23.8554C35.4239 23.7061 35.365 23.5629 35.2586 23.457L33.8171 22.0151C33.7076 21.905 33.5627 21.8498 33.4188 21.8498C33.2748 21.8498 33.1308 21.905 33.0212 22.0151L32.2007 22.8344C31.9045 22.6773 31.5928 22.5456 31.2656 22.4462V21.2894C31.2656 20.9786 31.0144 20.7266 30.7035 20.7266H28.6641C28.5274 20.7266 28.4072 20.7813 28.3091 20.8624C28.4808 21.489 28.5749 22.1685 28.5749 22.8933C28.5749 23.3534 28.539 23.8207 28.4719 24.2852C28.8514 24.1453 29.2555 24.0575 29.6834 24.0575C31.6321 24.0575 33.2175 25.6425 33.2175 27.5907C33.2175 28.8359 32.5672 29.9272 31.5912 30.5567C32.3013 31.3355 32.8658 32.2595 33.2331 33.2948C33.2936 33.3157 33.3566 33.3308 33.4196 33.3308C33.5636 33.3308 33.7076 33.2761 33.818 33.166L35.2603 31.7241C35.3659 31.6185 35.424 31.4754 35.424 31.3261C35.424 31.1768 35.3659 31.0336 35.2603 30.9276L34.4398 30.1084C34.5969 29.8123 34.7294 29.4996 34.8293 29.1733H35.986C36.1348 29.1733 36.2796 29.1144 36.3844 29.008C36.4899 28.9028 36.5497 28.7593 36.5497 28.61L36.5488 26.5707Z" fill="white"/>
<path d="M32.0842 33.8043C31.2096 31.231 28.8986 29.4611 26.2308 29.2202C25.3374 30.1662 24.2314 30.7664 22.9788 30.7664C21.7272 30.7664 20.6203 30.1663 19.7278 29.2202C17.0584 29.4611 14.7473 31.231 13.8727 33.8047L13.3892 35.2278C13.2509 35.6372 13.3172 36.0885 13.5692 36.4398C13.8212 36.7912 14.2269 36.9998 14.6589 36.9998H31.2979C31.7307 36.9998 32.1365 36.7912 32.3885 36.4398C32.6396 36.0885 32.7068 35.6372 32.5676 35.2278L32.0842 33.8043Z" fill="white"/>
<path d="M18.6406 22.8934C18.6406 26.0852 20.5836 29.5101 22.9789 29.5101C25.3752 29.5101 27.318 26.0852 27.318 22.8934C27.3181 16.2771 18.6406 16.264 18.6406 22.8934Z" fill="white"/>
</svg>
