<svg width="50" height="51" viewBox="0 0 50 51" fill="none" xmlns="http://www.w3.org/2000/svg">
<g clip-path="url(#clip0_188_133)">
<path d="M25 50.7022C38.8071 50.7022 50 39.3521 50 25.3511C50 11.3501 38.8071 0 25 0C11.1929 0 0 11.3501 0 25.3511C0 39.3521 11.1929 50.7022 25 50.7022Z" fill="#D9D9D9" fill-opacity="0.2"/>
<path d="M25.2074 23.2229C21.6935 23.2229 20.9814 17.8978 20.9814 17.8978C20.5635 15.1269 21.8328 12 25.161 12C28.5046 12 29.774 15.1269 29.356 17.8978C29.356 17.8978 28.7214 23.2229 25.2074 23.2229ZM25.2074 27.2012L29.418 24.3839C33.1176 24.3839 36.4149 27.9907 36.4149 31.3963V35.2508C36.4149 35.2508 30.7647 37 25.2074 37C19.5573 37 14 35.2508 14 35.2508V31.3963C14 27.9133 17.0031 24.4613 20.9195 24.4613L25.2074 27.2012Z" fill="white"/>
</g>
<defs>
<clipPath id="clip0_188_133">
<rect width="50" height="51" fill="white"/>
</clipPath>
</defs>
</svg>
