<svg width="50" height="51" viewBox="0 0 50 51" fill="none" xmlns="http://www.w3.org/2000/svg">
<path d="M35 33H15L17.5 30.5V23C17.5018 21.2289 18.1303 19.5156 19.2742 18.1635C20.4182 16.8114 22.0037 15.9077 23.75 15.6125V14.25C23.75 13.9185 23.8817 13.6005 24.1161 13.3661C24.3505 13.1317 24.6685 13 25 13C25.3315 13 25.6495 13.1317 25.8839 13.3661C26.1183 13.6005 26.25 13.9185 26.25 14.25V15.6125C26.8091 15.716 27.3544 15.8837 27.875 16.1125C27.5631 16.8712 27.443 17.6951 27.5254 18.5113C27.6078 19.3275 27.8902 20.1108 28.3475 20.7918C28.8048 21.4729 29.423 22.0307 30.1473 22.4158C30.8716 22.801 31.6797 23.0016 32.5 23V30.5L35 33ZM25 38C25.663 38 26.2989 37.7366 26.7678 37.2678C27.2366 36.7989 27.5 36.163 27.5 35.5H22.5C22.5 36.163 22.7634 36.7989 23.2322 37.2678C23.7011 37.7366 24.337 38 25 38ZM32.5 15.5C32.0055 15.5 31.5222 15.6466 31.1111 15.9213C30.6999 16.196 30.3795 16.5865 30.1903 17.0433C30.0011 17.5001 29.9516 18.0028 30.048 18.4877C30.1445 18.9727 30.3826 19.4181 30.7322 19.7678C31.0819 20.1174 31.5273 20.3555 32.0123 20.452C32.4972 20.5484 32.9999 20.4989 33.4567 20.3097C33.9135 20.1205 34.304 19.8 34.5787 19.3889C34.8534 18.9778 35 18.4945 35 18C35 17.337 34.7366 16.7011 34.2678 16.2322C33.7989 15.7634 33.163 15.5 32.5 15.5Z" fill="#F1E9E9"/>
</svg>
