<svg width="50" height="51" viewBox="0 0 50 51" fill="none" xmlns="http://www.w3.org/2000/svg">
<g clip-path="url(#clip0_189_165)">
<path d="M25 50.7022C38.8071 50.7022 50 39.3521 50 25.3511C50 11.3501 38.8071 0 25 0C11.1929 0 0 11.3501 0 25.3511C0 39.3521 11.1929 50.7022 25 50.7022Z" fill="#D9D9D9" fill-opacity="0.2"/>
<path fill-rule="evenodd" clip-rule="evenodd" d="M24.563 12.1257C24.8981 11.9581 25.2926 11.9581 25.6278 12.1257L37.5325 18.0781C38.0263 18.325 38.2856 18.879 38.1587 19.4164C38.0319 19.9537 37.5523 20.3333 37.0001 20.3333H13.1906C12.6385 20.3333 12.1588 19.9537 12.032 19.4164C11.9051 18.879 12.1644 18.325 12.6582 18.0781L24.563 12.1257ZM18.2335 17.9524H31.9572L25.0954 14.5215L18.2335 17.9524ZM17.9525 21.5238C18.61 21.5238 19.143 22.0568 19.143 22.7143V28.6667C19.143 29.3242 18.61 29.8571 17.9525 29.8571C17.295 29.8571 16.762 29.3242 16.762 28.6667V22.7143C16.762 22.0568 17.295 21.5238 17.9525 21.5238ZM22.7144 21.5238C23.3719 21.5238 23.9049 22.0568 23.9049 22.7143V28.6667C23.9049 29.3242 23.3719 29.8571 22.7144 29.8571C22.0569 29.8571 21.5239 29.3242 21.5239 28.6667V22.7143C21.5239 22.0568 22.0569 21.5238 22.7144 21.5238ZM27.4763 21.5238C28.1338 21.5238 28.6668 22.0568 28.6668 22.7143V28.6667C28.6668 29.3242 28.1338 29.8571 27.4763 29.8571C26.8188 29.8571 26.2859 29.3242 26.2859 28.6667V22.7143C26.2859 22.0568 26.8188 21.5238 27.4763 21.5238ZM32.2382 21.5238C32.8957 21.5238 33.4287 22.0568 33.4287 22.7143V28.6667C33.4287 29.3242 32.8957 29.8571 32.2382 29.8571C31.5807 29.8571 31.0478 29.3242 31.0478 28.6667V22.7143C31.0478 22.0568 31.5807 21.5238 32.2382 21.5238ZM14.3811 32.2381C14.3811 31.5806 14.9141 31.0476 15.5715 31.0476H34.6192C35.2767 31.0476 35.8097 31.5806 35.8097 32.2381C35.8097 32.8956 35.2767 33.4286 34.6192 33.4286H15.5715C14.9141 33.4286 14.3811 32.8956 14.3811 32.2381ZM12.0001 35.8095C12.0001 35.152 12.5331 34.619 13.1906 34.619H37.0001C37.6576 34.619 38.1906 35.152 38.1906 35.8095C38.1906 36.467 37.6576 37 37.0001 37H13.1906C12.5331 37 12.0001 36.467 12.0001 35.8095Z" fill="white"/>
</g>
<defs>
<clipPath id="clip0_189_165">
<rect width="50" height="51" fill="white"/>
</clipPath>
</defs>
</svg>
