<svg width="50" height="51" viewBox="0 0 50 51" fill="none" xmlns="http://www.w3.org/2000/svg">
<ellipse cx="25" cy="25.3511" rx="25" ry="25.3511" fill="#D9D9D9" fill-opacity="0.2"/>
<path d="M17.3869 14.4863H34.2231C34.9609 14.4863 35.5377 15.0722 35.5377 15.8194V35.0721C35.5377 35.8204 34.9599 36.4053 34.2231 36.4053H29.8934V32.0802H21.7155V36.4053H17.3859C16.648 36.4053 16.0713 35.8194 16.0713 35.0721V15.8194C16.0713 15.0712 16.6491 14.4863 17.3859 14.4863H17.3869ZM18.9591 18.8447H32.6529V17.2181H18.9591V18.8447ZM18.9591 22.5839H32.6529V20.9573H18.9591V22.5839ZM18.9591 26.3241H32.6529V24.6975H18.9591V26.3241ZM18.9591 30.0644H32.6529V28.4378H18.9591V30.0644ZM25.3729 37.1213H22.5827V32.9585H25.3729V37.1213ZM29.0283 37.1213H26.238V32.9585H29.0283V37.1213Z" fill="white"/>
</svg>
