<svg width="50" height="51" viewBox="0 0 50 51" fill="none" xmlns="http://www.w3.org/2000/svg">
<ellipse cx="25" cy="25.3511" rx="25" ry="25.3511" fill="#D9D9D9" fill-opacity="0.2"/>
<path d="M37.695 25.2365L32.2277 30.7053C32.0821 30.851 31.8965 30.9502 31.6944 30.9904C31.4923 31.0306 31.2828 31.01 31.0925 30.9312C30.9021 30.8524 30.7394 30.7188 30.6249 30.5475C30.5104 30.3762 30.4493 30.1748 30.4493 29.9688V25.5417H22.375C22.0987 25.5417 21.8338 25.4319 21.6384 25.2366C21.4431 25.0412 21.3333 24.7763 21.3333 24.5C21.3333 24.2237 21.4431 23.9588 21.6384 23.7634C21.8338 23.5681 22.0987 23.4583 22.375 23.4583H30.4493V19.0313C30.4493 18.8252 30.5104 18.6238 30.6249 18.4525C30.7394 18.2812 30.9021 18.1476 31.0925 18.0688C31.2828 17.99 31.4923 17.9694 31.6944 18.0096C31.8965 18.0498 32.0821 18.149 32.2277 18.2948L37.695 23.7635C37.8903 23.9589 38 24.2238 38 24.5C38 24.7762 37.8903 25.0412 37.695 25.2365V25.2365ZM22.375 34.9167H15.0833V14.0833H22.375C22.6513 14.0833 22.9162 13.9736 23.1116 13.7782C23.3069 13.5829 23.4167 13.3179 23.4167 13.0417C23.4167 12.7654 23.3069 12.5004 23.1116 12.3051C22.9162 12.1097 22.6513 12 22.375 12H15.0833C14.531 12.0006 14.0015 12.2203 13.6109 12.6109C13.2203 13.0015 13.0006 13.531 13 14.0833V34.9167C13.0006 35.469 13.2203 35.9986 13.6109 36.3891C14.0015 36.7797 14.531 36.9994 15.0833 37H22.375C22.6513 37 22.9162 36.8903 23.1116 36.6949C23.3069 36.4996 23.4167 36.2346 23.4167 35.9583C23.4167 35.6821 23.3069 35.4171 23.1116 35.2218C22.9162 35.0264 22.6513 34.9167 22.375 34.9167Z" fill="white"/>
</svg>
