<svg width="50" height="51" viewBox="0 0 50 51" fill="none" xmlns="http://www.w3.org/2000/svg">
<path d="M38.695 25.2365L33.2277 30.7053C33.0821 30.851 32.8965 30.9502 32.6944 30.9904C32.4923 31.0306 32.2828 31.01 32.0925 30.9312C31.9021 30.8524 31.7394 30.7188 31.6249 30.5475C31.5104 30.3762 31.4493 30.1748 31.4493 29.9688V25.5417H23.375C23.0987 25.5417 22.8338 25.4319 22.6384 25.2366C22.4431 25.0412 22.3333 24.7763 22.3333 24.5C22.3333 24.2237 22.4431 23.9588 22.6384 23.7634C22.8338 23.5681 23.0987 23.4583 23.375 23.4583H31.4493V19.0313C31.4493 18.8252 31.5104 18.6238 31.6249 18.4525C31.7394 18.2812 31.9021 18.1476 32.0925 18.0688C32.2828 17.99 32.4923 17.9694 32.6944 18.0096C32.8965 18.0498 33.0821 18.149 33.2277 18.2948L38.695 23.7635C38.8903 23.9589 39 24.2238 39 24.5C39 24.7762 38.8903 25.0412 38.695 25.2365V25.2365ZM23.375 34.9167H16.0833V14.0833H23.375C23.6513 14.0833 23.9162 13.9736 24.1116 13.7782C24.3069 13.5829 24.4167 13.3179 24.4167 13.0417C24.4167 12.7654 24.3069 12.5004 24.1116 12.3051C23.9162 12.1097 23.6513 12 23.375 12H16.0833C15.531 12.0006 15.0015 12.2203 14.6109 12.6109C14.2203 13.0015 14.0006 13.531 14 14.0833V34.9167C14.0006 35.469 14.2203 35.9986 14.6109 36.3891C15.0015 36.7797 15.531 36.9994 16.0833 37H23.375C23.6513 37 23.9162 36.8903 24.1116 36.6949C24.3069 36.4996 24.4167 36.2346 24.4167 35.9583C24.4167 35.6821 24.3069 35.4171 24.1116 35.2218C23.9162 35.0264 23.6513 34.9167 23.375 34.9167Z" fill="#F1E9E9"/>
</svg>
